<svg width="15" height="18" viewBox="0 0 15 18" xmlns="http://www.w3.org/2000/svg">
<path d="M4.53125 2.19746H4.375C4.46094 2.19746 4.53125 2.1228 4.53125 2.03154V2.19746H10.4688V2.03154C10.4688 2.1228 10.5391 2.19746 10.625 2.19746H10.4688V3.69069H11.875V2.03154C11.875 1.29944 11.3145 0.704224 10.625 0.704224H4.375C3.68555 0.704224 3.125 1.29944 3.125 2.03154V3.69069H4.53125V2.19746ZM14.375 3.69069H0.625C0.279297 3.69069 0 3.98727 0 4.35436V5.01802C0 5.10927 0.0703125 5.18393 0.15625 5.18393H1.33594L1.81836 16.0306C1.84961 16.7378 2.40039 17.2957 3.06641 17.2957H11.9336C12.6016 17.2957 13.1504 16.7399 13.1816 16.0306L13.6641 5.18393H14.8438C14.9297 5.18393 15 5.10927 15 5.01802V4.35436C15 3.98727 14.7207 3.69069 14.375 3.69069ZM11.7832 15.8025H3.2168L2.74414 5.18393H12.2559L11.7832 15.8025Z"/>
</svg>
