<svg width="12" height="9" viewBox="0 0 12 9" fill="none" xmlns="http://www.w3.org/2000/svg">
<path d="M11.6068 0.943968L11.6011 0.937087L11.5949 0.930662C11.3842 0.712493 11.0454 0.712002 10.8342 0.929192L4.68902 7.10123L1.68259 4.07382C1.47135 3.85648 1.13243 3.85692 0.921707 4.07514C0.714987 4.28922 0.714987 4.62687 0.921707 4.84095L0.921691 4.84096L0.923993 4.84328L4.01052 7.95135C4.19288 8.13947 4.44146 8.23333 4.67185 8.23333C4.92229 8.23333 5.15291 8.13735 5.33308 7.95146L11.5546 1.70274C11.7842 1.4899 11.7825 1.15622 11.6068 0.943968ZM4.77149 7.18427L4.77031 7.18308C4.77072 7.1835 4.77109 7.1839 4.77147 7.18429L4.77149 7.18427Z" fill="#313131"/>
<path d="M11.6068 0.943968L11.6011 0.937087L11.5949 0.930662C11.3842 0.712493 11.0454 0.712002 10.8342 0.929192L4.68902 7.10123L1.68259 4.07382C1.47135 3.85648 1.13243 3.85692 0.921707 4.07514C0.714987 4.28922 0.714987 4.62687 0.921707 4.84095L0.921691 4.84096L0.923993 4.84328L4.01052 7.95135C4.19288 8.13947 4.44146 8.23333 4.67185 8.23333C4.92229 8.23333 5.15291 8.13735 5.33308 7.95146L11.5546 1.70274C11.7842 1.4899 11.7825 1.15622 11.6068 0.943968ZM4.77149 7.18427L4.77031 7.18308C4.77072 7.1835 4.77109 7.1839 4.77147 7.18429L4.77149 7.18427Z" fill="#5F4080"/>
<path d="M11.6068 0.943968L11.6011 0.937087L11.5949 0.930662C11.3842 0.712493 11.0454 0.712002 10.8342 0.929192L4.68902 7.10123L1.68259 4.07382C1.47135 3.85648 1.13243 3.85692 0.921707 4.07514C0.714987 4.28922 0.714987 4.62687 0.921707 4.84095L0.921691 4.84096L0.923993 4.84328L4.01052 7.95135C4.19288 8.13947 4.44146 8.23333 4.67185 8.23333C4.92229 8.23333 5.15291 8.13735 5.33308 7.95146L11.5546 1.70274C11.7842 1.4899 11.7825 1.15622 11.6068 0.943968ZM4.77149 7.18427L4.77031 7.18308C4.77072 7.1835 4.77109 7.1839 4.77147 7.18429L4.77149 7.18427Z" stroke="#313131" stroke-width="0.466667"/>
<path d="M11.6068 0.943968L11.6011 0.937087L11.5949 0.930662C11.3842 0.712493 11.0454 0.712002 10.8342 0.929192L4.68902 7.10123L1.68259 4.07382C1.47135 3.85648 1.13243 3.85692 0.921707 4.07514C0.714987 4.28922 0.714987 4.62687 0.921707 4.84095L0.921691 4.84096L0.923993 4.84328L4.01052 7.95135C4.19288 8.13947 4.44146 8.23333 4.67185 8.23333C4.92229 8.23333 5.15291 8.13735 5.33308 7.95146L11.5546 1.70274C11.7842 1.4899 11.7825 1.15622 11.6068 0.943968ZM4.77149 7.18427L4.77031 7.18308C4.77072 7.1835 4.77109 7.1839 4.77147 7.18429L4.77149 7.18427Z" stroke="#5F4080" stroke-width="0.466667"/>
</svg>
