<svg width="24" height="24" viewBox="0 0 24 24" fill="none" xmlns="http://www.w3.org/2000/svg">
<path d="M12.5522 8C12 8 11.5522 8.44772 11.5522 9C11.5522 9.55228 12 10 12.5522 10H16.5522C17.1045 10 17.5522 9.55228 17.5522 9C17.5522 8.44772 17.1045 8 16.5522 8H12.5522Z" fill="white"/>
<path d="M12.5522 17C12 17 11.5522 17.4477 11.5522 18C11.5522 18.5523 12 19 12.5522 19H16.5522C17.1045 19 17.5522 18.5523 17.5522 18C17.5522 17.4477 17.1045 17 16.5522 17H12.5522Z" fill="white"/>
<path d="M12.5522 5C12 5 11.5522 5.44772 11.5522 6C11.5522 6.55228 12 7 12.5522 7H20.5522C21.1045 7 21.5522 6.55228 21.5522 6C21.5522 5.44772 21.1045 5 20.5522 5H12.5522Z" fill="white"/>
<path d="M12.5522 14C12 14 11.5522 14.4477 11.5522 15C11.5522 15.5523 12 16 12.5522 16H20.5522C21.1045 16 21.5522 15.5523 21.5522 15C21.5522 14.4477 21.1045 14 20.5522 14H12.5522Z" fill="white"/>
<path d="M3.44775 4.00208C2.89547 4.00208 2.44775 4.44979 2.44775 5.00208V10.0021C2.44775 10.5544 2.89547 11.0021 3.44775 11.0021H8.44775C9.00004 11.0021 9.44775 10.5544 9.44775 10.0021V5.00208C9.44775 4.44979 9.00004 4.00208 8.44775 4.00208H3.44775Z" fill="white"/>
<path d="M3.44775 12.9979C2.89547 12.9979 2.44775 13.4456 2.44775 13.9979V18.9979C2.44775 19.5502 2.89547 19.9979 3.44775 19.9979H8.44775C9.00004 19.9979 9.44775 19.5502 9.44775 18.9979V13.9979C9.44775 13.4456 9.00004 12.9979 8.44775 12.9979H3.44775Z" fill="white"/>
</svg>
