<svg width="17" height="15" viewBox="0 0 17 15" fill="none" xmlns="http://www.w3.org/2000/svg">
<path d="M16.7727 0.744551C16.674 0.522294 16.5105 0.33322 16.3024 0.200844C16.0944 0.0684681 15.851 -0.00136842 15.6025 2.03161e-05H1.49663C1.24844 0.000497003 1.00572 0.0711689 0.797923 0.203463C0.590127 0.335757 0.426179 0.523988 0.32597 0.74532C0.225761 0.966653 0.193596 1.21158 0.233378 1.45038C0.27316 1.68918 0.383179 1.91159 0.550088 2.09065L0.5565 2.09768L5.98487 7.74768V13.75C5.98482 13.9763 6.04775 14.1983 6.16697 14.3924C6.28618 14.5865 6.4572 14.7454 6.66179 14.8522C6.86638 14.959 7.09688 15.0097 7.3287 14.9989C7.56052 14.988 7.78498 14.9161 7.97814 14.7906L10.5429 13.1235C10.7187 13.0093 10.8628 12.8546 10.9625 12.673C11.0622 12.4915 11.1144 12.2887 11.1143 12.0828V7.74768L16.5435 2.09768L16.5499 2.09065C16.7186 1.91241 16.8296 1.6897 16.8693 1.45031C16.9089 1.21092 16.8753 0.965451 16.7727 0.744551ZM10.1798 6.8969C9.95704 7.12704 9.83265 7.43128 9.83194 7.74768V12.0828L7.26723 13.75V7.74768C7.26798 7.43014 7.1441 7.12436 6.92099 6.89299L1.49663 1.25002H15.6025L10.1798 6.8969Z" fill="white"/>
</svg>
