<svg width="29" height="29" viewBox="0 0 29 29" fill="none" xmlns="http://www.w3.org/2000/svg">
<path d="M9.88665 14.5266C9.88665 11.9971 11.936 9.94605 14.4647 9.94605C16.9935 9.94605 19.0439 11.9971 19.0439 14.5266C19.0439 17.056 16.9935 19.1071 14.4647 19.1071C11.936 19.1071 9.88665 17.056 9.88665 14.5266ZM7.41123 14.5266C7.41123 18.4233 10.5691 21.5821 14.4647 21.5821C18.3604 21.5821 21.5182 18.4233 21.5182 14.5266C21.5182 10.6298 18.3604 7.47102 14.4647 7.47102C10.5691 7.47102 7.41123 10.6298 7.41123 14.5266ZM20.1491 7.19126C20.149 7.51737 20.2455 7.8362 20.4265 8.10743C20.6076 8.37865 20.8649 8.59009 21.1661 8.71501C21.4672 8.83993 21.7986 8.87271 22.1184 8.80922C22.4382 8.74573 22.732 8.5888 22.9626 8.3583C23.1932 8.1278 23.3503 7.83406 23.4141 7.51424C23.4778 7.19442 23.4453 6.86288 23.3206 6.56154C23.196 6.2602 22.9848 6.0026 22.7138 5.82132C22.4428 5.64003 22.1242 5.5432 21.7981 5.54307H21.7975C21.3605 5.54327 20.9414 5.71697 20.6324 6.026C20.3233 6.33503 20.1495 6.75414 20.1491 7.19126ZM8.9152 25.7109C7.57595 25.6499 6.84803 25.4268 6.36429 25.2383C5.72296 24.9885 5.26537 24.6911 4.78426 24.2105C4.30316 23.7299 4.00535 23.2726 3.75678 22.6311C3.5682 22.1474 3.34512 21.4191 3.28424 20.0795C3.21765 18.6311 3.20435 18.196 3.20435 14.5267C3.20435 10.8573 3.21875 10.4234 3.28424 8.97389C3.34523 7.63425 3.56996 6.90733 3.75678 6.42224C4.00645 5.78072 4.30382 5.323 4.78426 4.84176C5.26471 4.36051 5.72186 4.06262 6.36429 3.81397C6.84781 3.62535 7.57595 3.4022 8.9152 3.3413C10.3631 3.27469 10.7981 3.26139 14.4647 3.26139C18.1314 3.26139 18.5668 3.27579 20.0159 3.3413C21.3552 3.40231 22.0819 3.6271 22.5668 3.81397C23.2082 4.06262 23.6658 4.36117 24.1469 4.84176C24.628 5.32234 24.9247 5.78072 25.1743 6.42224C25.3629 6.9059 25.586 7.63425 25.6469 8.97389C25.7135 10.4234 25.7268 10.8573 25.7268 14.5267C25.7268 18.196 25.7135 18.6299 25.6469 20.0795C25.5859 21.4191 25.3617 22.1472 25.1743 22.6311C24.9247 23.2726 24.6273 23.7303 24.1469 24.2105C23.6664 24.6906 23.2082 24.9885 22.5668 25.2383C22.0833 25.4269 21.3552 25.65 20.0159 25.7109C18.568 25.7776 18.133 25.7909 14.4647 25.7909C10.7964 25.7909 10.3627 25.7776 8.9152 25.7109ZM8.80147 0.869345C7.33914 0.935958 6.33989 1.1679 5.46724 1.50756C4.56349 1.85833 3.79843 2.32891 3.03391 3.09244C2.26939 3.85596 1.80016 4.62246 1.44949 5.52647C1.10993 6.39992 0.878054 7.39891 0.81146 8.86166C0.743766 10.3267 0.728271 10.7951 0.728271 14.5266C0.728271 18.258 0.743766 18.7264 0.81146 20.1915C0.878054 21.6543 1.10993 22.6532 1.44949 23.5267C1.80016 24.4301 2.2695 25.1975 3.03391 25.9607C3.79832 26.7239 4.56349 27.1938 5.46724 27.5456C6.34154 27.8852 7.33914 28.1172 8.80147 28.1838C10.2669 28.2504 10.7344 28.267 14.4647 28.267C18.1951 28.267 18.6634 28.2515 20.128 28.1838C21.5904 28.1172 22.589 27.8852 23.4622 27.5456C24.3654 27.1938 25.131 26.7242 25.8956 25.9607C26.6601 25.1972 27.1283 24.4301 27.48 23.5267C27.8195 22.6532 28.0525 21.6542 28.118 20.1915C28.1846 18.7253 28.2001 18.258 28.2001 14.5266C28.2001 10.7951 28.1846 10.3267 28.118 8.86166C28.0514 7.3988 27.8195 6.39937 27.48 5.52647C27.1283 4.62301 26.6589 3.85717 25.8956 3.09244C25.1323 2.3277 24.3654 1.85833 23.4633 1.50756C22.589 1.1679 21.5903 0.934859 20.1291 0.869345C18.6645 0.802731 18.1962 0.786133 14.4658 0.786133C10.7355 0.786133 10.2669 0.801632 8.80147 0.869345Z" fill="white"/>
</svg>
