<svg width="21" height="27" viewBox="0 0 21 27" fill="none" xmlns="http://www.w3.org/2000/svg">
<path d="M15.4106 0.185495L5.68869 0.152046C5.45064 0.15118 5.21475 0.197218 4.99449 0.28753C4.77423 0.377842 4.57392 0.510659 4.40499 0.678396C4.23607 0.846133 4.10185 1.0455 4.00999 1.26512C3.91812 1.48474 3.87042 1.7203 3.86961 1.95836L3.85291 10.5637C2.72943 11.1461 0.451219 12.7649 0.0465684 16.441C0.0182057 16.6939 0.0434194 16.95 0.12057 17.1925C0.197719 17.435 0.325077 17.6586 0.494349 17.8486C0.663622 18.0386 0.871016 18.1909 1.10303 18.2955C1.33505 18.4 1.58649 18.4546 1.84098 18.4555L9.58038 18.4812L9.55391 25.313C9.55307 25.5535 9.64779 25.7845 9.81723 25.9551C9.98668 26.1258 10.217 26.2221 10.4575 26.223C10.698 26.2238 10.9289 26.1291 11.0996 25.9596C11.2702 25.7902 11.3666 25.5599 11.3674 25.3194L11.3891 18.4875L19.1253 18.5148C19.3636 18.5161 19.5998 18.4705 19.8205 18.3804C20.0411 18.2903 20.2419 18.1576 20.4112 17.9899C20.4417 17.9595 20.4715 17.93 20.502 17.8997C20.6727 17.7049 20.7995 17.4757 20.8738 17.2276C20.9481 16.9795 20.968 16.7183 20.9324 16.4617C20.4279 12.7961 18.5822 11.2412 17.2035 10.5859L17.2177 2.00378C17.2185 1.76572 17.1723 1.52985 17.0819 1.30963C16.9915 1.08941 16.8586 0.889158 16.6908 0.720309C16.523 0.551462 16.3236 0.417325 16.1039 0.32556C15.8842 0.233795 15.6487 0.186201 15.4106 0.185495ZM15.4042 1.99899L5.00442 6.95971L15.3871 11.1891C15.3867 11.3789 15.4461 11.564 15.5566 11.7184C15.6672 11.8727 15.8234 11.9884 16.0032 12.0491C18.2746 12.8157 8.51855 5.42795 8.71305 6.83603L10.6257 5.95854C10.8193 4.21138 2.76426 13.7648 3.47485 13.0592C3.91963 12.6053 4.45464 12.2497 5.04533 12.0154C5.2264 11.9558 5.38407 11.8406 5.49592 11.6863C5.60777 11.5319 5.66811 11.3463 5.66835 11.1556L16.5717 16.6938L15.4034 1.99819L15.4042 1.99899Z" fill="white" fill-opacity="0.84"/>
</svg>
