<svg width="18" height="17" viewBox="0 0 18 17" fill="none" xmlns="http://www.w3.org/2000/svg">
<path d="M14.0425 14.0118C15.8373 12.688 16.917 10.6789 16.917 8.49987C16.917 4.76344 13.7558 1.67967 9.72649 1.45313C9.46239 1.43828 9.26137 1.22905 9.27749 0.985809C9.29361 0.742564 9.52077 0.557412 9.78486 0.572261C14.319 0.827183 17.8751 4.29624 17.8751 8.49987C17.8751 10.9382 16.6726 13.1884 14.6727 14.6774H17.396C17.6606 14.6774 17.8751 14.875 17.8751 15.1187C17.8751 15.3624 17.6606 15.5599 17.396 15.5599H13.5634C13.2989 15.5599 13.0844 15.3624 13.0844 15.1187V11.5886C13.0844 11.3449 13.2989 11.1474 13.5634 11.1474C13.828 11.1474 14.0425 11.3449 14.0425 11.5886V14.0118ZM4.46102 2.98797C2.6664 4.31157 1.58657 6.32071 1.58657 8.49987C1.58657 12.2482 4.76729 15.3379 8.8118 15.5485C9.07597 15.5623 9.27801 15.7706 9.26308 16.014C9.24814 16.2573 9.02189 16.4434 8.75772 16.4296C4.20654 16.1926 0.628418 12.7169 0.628418 8.49987C0.628418 6.06139 1.83115 3.81121 3.83077 2.32233H1.10749C0.842907 2.32233 0.628418 2.12477 0.628418 1.88108C0.628418 1.63738 0.842907 1.43982 1.10749 1.43982H4.94009C5.20468 1.43982 5.41917 1.63738 5.41917 1.88108V5.4111C5.41917 5.6548 5.20468 5.85235 4.94009 5.85235C4.67551 5.85235 4.46102 5.6548 4.46102 5.4111V2.98797Z" fill="white"/>
</svg>
