<svg width="19" height="16" viewBox="0 0 19 16" fill="none" xmlns="http://www.w3.org/2000/svg">
<path d="M18.2381 1.2465C18.3234 0.849368 17.9341 0.514512 17.5543 0.659433L1.07983 6.94844C0.881557 7.02415 0.750411 7.21418 0.750001 7.4264C0.749591 7.63866 0.879985 7.82921 1.07799 7.90567L5.70598 9.69308V15.3229C5.70598 15.5603 5.86905 15.7667 6.1001 15.8216C6.32961 15.8762 6.56894 15.767 6.67654 15.5536L8.59062 11.7553L13.2617 15.2219C13.5458 15.4328 13.9542 15.2986 14.0576 14.9597C18.4189 0.660561 18.2304 1.28242 18.2381 1.2465ZM14.1714 3.04837L6.146 8.76381L2.69293 7.4302L14.1714 3.04837ZM6.73136 9.60575L13.7268 4.62387C7.70732 10.9741 8.0217 10.6398 7.99545 10.6752C7.95645 10.7276 8.0633 10.5231 6.73136 13.1662V9.60575ZM13.2889 13.9652L9.1773 10.9138L16.6117 3.07092L13.2889 13.9652Z" fill="#313131"/>
<path d="M18.2381 1.2465C18.3234 0.849368 17.9341 0.514512 17.5543 0.659433L1.07983 6.94844C0.881557 7.02415 0.750411 7.21418 0.750001 7.4264C0.749591 7.63866 0.879985 7.82921 1.07799 7.90567L5.70598 9.69308V15.3229C5.70598 15.5603 5.86905 15.7667 6.1001 15.8216C6.32961 15.8762 6.56894 15.767 6.67654 15.5536L8.59062 11.7553L13.2617 15.2219C13.5458 15.4328 13.9542 15.2986 14.0576 14.9597C18.4189 0.660561 18.2304 1.28242 18.2381 1.2465ZM14.1714 3.04837L6.146 8.76381L2.69293 7.4302L14.1714 3.04837ZM6.73136 9.60575L13.7268 4.62387C7.70732 10.9741 8.0217 10.6398 7.99545 10.6752C7.95645 10.7276 8.0633 10.5231 6.73136 13.1662V9.60575ZM13.2889 13.9652L9.1773 10.9138L16.6117 3.07092L13.2889 13.9652Z" fill="white"/>
</svg>
