<svg width="28" height="25" viewBox="0 0 28 25" fill="none" xmlns="http://www.w3.org/2000/svg">
<path d="M21.694 22.224H4.184C3.76592 22.2241 3.35191 22.1419 2.96561 21.982C2.57932 21.8221 2.22831 21.5877 1.93263 21.2921C1.63696 20.9965 1.40241 20.6456 1.24239 20.2593C1.08236 19.8731 1 19.4591 1 19.041V1.531C1 1.39017 1.05595 1.25511 1.15553 1.15553C1.25511 1.05594 1.39017 1 1.531 1H2.592C2.73283 1 2.86789 1.05594 2.96747 1.15553C3.06706 1.25511 3.123 1.39017 3.123 1.531V19.041C3.12379 19.322 3.2359 19.5912 3.43476 19.7897C3.63362 19.9881 3.90303 20.0997 4.184 20.1H21.694C21.8348 20.1 21.9699 20.1559 22.0695 20.2555C22.1691 20.3551 22.225 20.4902 22.225 20.631V21.692C22.2251 21.7618 22.2115 21.831 22.1849 21.8955C22.1582 21.9601 22.1191 22.0187 22.0698 22.0681C22.0205 22.1175 21.9619 22.1567 21.8974 22.1835C21.8329 22.2102 21.7638 22.224 21.694 22.224V22.224Z" fill="white" stroke="#435179" stroke-width="0.2"/>
<path d="M6.68085 17.293L5.93185 16.544C5.88241 16.4948 5.84319 16.4362 5.81642 16.3718C5.78966 16.3074 5.77588 16.2383 5.77588 16.1685C5.77588 16.0987 5.78966 16.0296 5.81642 15.9652C5.84319 15.9008 5.88241 15.8422 5.93185 15.793L13.6078 8.117C14.206 7.52295 15.0148 7.18955 15.8578 7.18955C16.7009 7.18955 17.5097 7.52295 18.1078 8.117L18.8198 8.82999C19.0216 9.02338 19.2903 9.13134 19.5698 9.13134C19.8493 9.13134 20.118 9.02338 20.3198 8.82999L25.3418 3.807C25.3912 3.75768 25.4497 3.71856 25.5141 3.69187C25.5786 3.66518 25.6476 3.65144 25.7173 3.65144C25.7871 3.65144 25.8561 3.66518 25.9206 3.69187C25.985 3.71856 26.0435 3.75768 26.0928 3.807L26.8418 4.556C26.8913 4.60524 26.9305 4.66376 26.9573 4.7282C26.984 4.79263 26.9978 4.86172 26.9978 4.9315C26.9978 5.00127 26.984 5.07036 26.9573 5.1348C26.9305 5.19923 26.8913 5.25775 26.8418 5.307L21.8218 10.332C21.2237 10.926 20.4149 11.2594 19.5718 11.2594C18.7288 11.2594 17.92 10.926 17.3218 10.332L16.6098 9.619C16.408 9.42561 16.1393 9.31766 15.8598 9.31766C15.5803 9.31766 15.3116 9.42561 15.1098 9.619L7.43485 17.295C7.38535 17.3446 7.32652 17.384 7.26174 17.4108C7.19696 17.4375 7.12753 17.4512 7.05743 17.4511C6.98733 17.4509 6.91797 17.4368 6.85333 17.4097C6.7887 17.3826 6.73008 17.3429 6.68085 17.293V17.293Z" fill="white" stroke="#435179" stroke-width="0.2"/>
</svg>
