<svg width="14" height="66" viewBox="0 0 14 66" fill="none" xmlns="http://www.w3.org/2000/svg">
<path fill-rule="evenodd" clip-rule="evenodd" d="M-3.03984e-06 0V11V11.9677V55.9677C-3.03984e-06 60.0689 1.02599 62.5893 2.89648 64.0374C4.72432 65.4525 7.19241 65.7 9.7 65.7H12.7C13.0866 65.7 13.4 65.3866 13.4 65C13.4 64.6134 13.0866 64.3 12.7 64.3H9.7C7.20759 64.3 5.17567 64.0314 3.75352 62.9304C2.374 61.8623 1.4 59.8666 1.4 55.9677V18.3569C1.81325 19.0313 2.3139 19.5864 2.89648 20.0374C4.72432 21.4525 7.19241 21.7 9.7 21.7H12.7C13.0866 21.7 13.4 21.3866 13.4 21C13.4 20.6134 13.0866 20.3 12.7 20.3H9.7C7.20759 20.3 5.17567 20.0314 3.75352 18.9304C2.374 17.8623 1.4 15.8666 1.4 11.9677V11V0H-3.03984e-06Z" fill="white" fill-opacity="0.16"/>
</svg>
