<svg width="5" height="19" viewBox="0 0 5 19" fill="none" xmlns="http://www.w3.org/2000/svg">
<path d="M2.64215 11.6605C1.43831 11.6416 0.478791 10.6215 0.499979 9.3831C0.521168 8.1447 1.51506 7.15533 2.71891 7.17428C3.92276 7.19322 4.88227 8.21332 4.86108 9.45172C4.83989 10.6901 3.846 11.6795 2.64215 11.6605ZM4.73955 16.555C4.76074 15.3166 3.80122 14.2965 2.59738 14.2775C1.39353 14.2586 0.399635 15.2479 0.378447 16.4863C0.357259 17.7247 1.31677 18.7448 2.52062 18.7638C3.72447 18.7827 4.71836 17.7934 4.73955 16.555ZM4.98262 2.34847C5.0038 1.11007 4.04429 0.0899714 2.84044 0.0710291C1.6366 0.0520868 0.6427 1.04145 0.621512 2.27985C0.600324 3.51824 1.55984 4.53835 2.76369 4.55729C3.96753 4.57623 4.96143 3.58686 4.98262 2.34847Z" fill="#8D91A0"/>
</svg>
