<svg width="54" height="40" viewBox="0 0 54 40" fill="none" xmlns="http://www.w3.org/2000/svg">
<path fill-rule="evenodd" clip-rule="evenodd" d="M6.0419 0.339355C2.70505 0.339355 0 3.0444 0 6.38126V33.9144C0 37.2512 2.70505 39.9563 6.0419 39.9563H33.575C36.9119 39.9563 39.6169 37.2512 39.6169 33.9144V6.38126C39.6169 3.04441 36.9119 0.339355 33.575 0.339355H6.0419ZM27.8491 20.1128C27.8491 24.4908 24.2739 28.0845 19.8085 28.0845C15.343 28.0845 11.7678 24.4908 11.7678 20.1128C11.7678 15.7348 15.343 12.1411 19.8085 12.1411C24.2739 12.1411 27.8491 15.7348 27.8491 20.1128ZM32.7669 20.1128C32.7669 27.2315 26.9652 33.0023 19.8085 33.0023C12.6517 33.0023 6.84998 27.2315 6.84998 20.1128C6.84998 12.9941 12.6517 7.22325 19.8085 7.22325C26.9652 7.22325 32.7669 12.9941 32.7669 20.1128Z" fill="white"/>
<path d="M44.2788 11.2157C44.2788 10.4811 44.6613 9.79944 45.2884 9.4167L50.715 6.10434C51.979 5.33279 53.6001 6.24254 53.6001 7.72343V20.1479H44.2788V11.2157Z" fill="white"/>
<path d="M44.2776 29.0443C44.2776 29.7789 44.6601 30.4606 45.2871 30.8433L50.7138 34.1557C51.9778 34.9272 53.5989 34.0175 53.5989 32.5366V20.1121H44.2776V29.0443Z" fill="white"/>
</svg>
