<svg width="13" height="14" viewBox="0 0 13 14" fill="none" xmlns="http://www.w3.org/2000/svg">
<path fill-rule="evenodd" clip-rule="evenodd" d="M0.363702 0.763604C0.715173 0.412132 1.28502 0.412132 1.63649 0.763604L6.4001 5.52721L11.1637 0.763604C11.5152 0.412132 12.085 0.412132 12.4365 0.763604C12.788 1.11508 12.788 1.68492 12.4365 2.0364L7.67289 6.8L12.4365 11.5636C12.788 11.9151 12.788 12.4849 12.4365 12.8364C12.085 13.1879 11.5152 13.1879 11.1637 12.8364L6.4001 8.07279L1.63649 12.8364C1.28502 13.1879 0.715173 13.1879 0.363702 12.8364C0.0122297 12.4849 0.0122297 11.9151 0.363702 11.5636L5.12731 6.8L0.363702 2.0364C0.0122297 1.68492 0.0122297 1.11508 0.363702 0.763604Z" fill="#8D91A0"/>
</svg>
