<svg width="57" height="57" viewBox="0 0 57 57" fill="none" xmlns="http://www.w3.org/2000/svg">
<path d="M46.2914 19.2157C45.902 17.5589 44.7499 16.2518 43.2841 15.8039C40.6338 15 30 15 30 15C30 15 19.3716 15 16.7159 15.8039C15.2555 16.2457 14.1034 17.5527 13.7086 19.2157C13 22.2225 13 28.5 13 28.5C13 28.5 13 34.7775 13.7086 37.7843C14.098 39.4411 15.2501 40.7482 16.7159 41.1961C19.3716 42 30 42 30 42C30 42 40.6338 42 43.2841 41.1961C44.7445 40.7543 45.8966 39.4473 46.2914 37.7843C47 34.7775 47 28.5 47 28.5C47 28.5 47 22.2225 46.2914 19.2157Z" fill="white"/>
<path d="M26.6032 34.2866L35.4359 28.5L26.6032 22.7134V34.2866Z" fill="black"/>
</svg>
