<svg width="34" height="23" viewBox="0 0 34 23" fill="none" xmlns="http://www.w3.org/2000/svg">
<path d="M32.3532 3.66001C31.9811 2.26092 30.8801 1.15719 29.4794 0.778916C26.9468 0.100098 16.7853 0.100098 16.7853 0.100098C16.7853 0.100098 6.62893 0.100098 4.09113 0.778916C2.6956 1.15201 1.59468 2.25573 1.21737 3.66001C0.540283 6.1991 0.540283 11.5001 0.540283 11.5001C0.540283 11.5001 0.540283 16.8011 1.21737 19.3402C1.58951 20.7393 2.69043 21.843 4.09113 22.2213C6.62893 22.9001 16.7853 22.9001 16.7853 22.9001C16.7853 22.9001 26.9468 22.9001 29.4794 22.2213C30.875 21.8482 31.9759 20.7445 32.3532 19.3402C33.0303 16.8011 33.0303 11.5001 33.0303 11.5001C33.0303 11.5001 33.0303 6.1991 32.3532 3.66001Z" fill="white"/>
<path d="M13.5394 16.3866L21.9798 11.5001L13.5394 6.61364V16.3866Z" fill="black"/>
</svg>
