<svg width="16" height="16" viewBox="0 0 16 16" fill="none" xmlns="http://www.w3.org/2000/svg">
<path d="M4.9248 9.5249L5.1373 9.3999L6.4998 11.7624L6.2873 11.8874L4.9248 9.5249Z" fill="url(#paint0_linear_683_1769)"/>
<path d="M4.3877 5.0625H4.6252V7.5125H4.3877V5.0625Z" fill="url(#paint1_linear_683_1769)"/>
<path d="M5.3376 7.8999L5.1626 7.7249L6.8126 6.0874L6.9751 6.2499L5.3376 7.8999Z" fill="url(#paint2_linear_683_1769)"/>
<path d="M5.5625 8.4375H8.6875V8.675H5.5625V8.4375Z" fill="url(#paint3_linear_683_1769)"/>
<path d="M5.3623 9.1876L5.4748 8.9751L9.09981 11.0626L8.97481 11.2751L5.3623 9.1876Z" fill="url(#paint4_linear_683_1769)"/>
<path d="M7.3126 12.25L7.2251 12.025L8.9751 11.3875L9.0501 11.6125L7.3126 12.25Z" fill="url(#paint5_linear_683_1769)"/>
<path d="M11.6126 10.8125L11.6501 11.05L9.7626 11.4125L9.7251 11.175L11.6126 10.8125Z" fill="url(#paint6_linear_683_1769)"/>
<path d="M7.08214 3.5415L7.16746 3.76544L4.93689 4.64874L4.85156 4.42481L7.08214 3.5415Z" fill="url(#paint7_linear_683_1769)"/>
<path d="M7.49817 5.11351L7.26025 5.089L7.36043 3.88794L7.59834 3.91245L7.49817 5.11351Z" fill="url(#paint8_linear_683_1769)"/>
<path d="M11.5127 5.1625L11.4252 5.375L7.8252 3.7875L7.9127 3.5625L11.5127 5.1625Z" fill="url(#paint9_linear_683_1769)"/>
<path d="M11.4151 5.42627L11.4275 5.67727L7.96602 5.84043L7.95361 5.58942L11.4151 5.42627Z" fill="url(#paint10_linear_683_1769)"/>
<path d="M8.9873 8.95005L9.2373 8.92505L9.4498 10.9875L9.2123 11.0125L8.9873 8.95005Z" fill="url(#paint11_linear_683_1769)"/>
<path d="M7.5376 6.325L7.7501 6.1875L8.9751 8.1625L8.7626 8.3L7.5376 6.325Z" fill="url(#paint12_linear_683_1769)"/>
<path d="M11.8125 6.1001L12.05 6.1376L11.8 7.8001L11.5625 7.7626L11.8125 6.1001Z" fill="url(#paint13_linear_683_1769)"/>
<path d="M10.9627 8.30005L10.9877 8.55005L9.4752 8.65005L9.4502 8.41255L10.9627 8.30005Z" fill="url(#paint14_linear_683_1769)"/>
<path d="M11.5625 8.9999L11.8 8.9624L12.0625 10.4624L11.825 10.4999L11.5625 8.9999Z" fill="url(#paint15_linear_683_1769)"/>
<path d="M4.61254 7.46259C5.21254 7.52509 5.66254 8.05009 5.60004 8.66259C5.53754 9.26259 5.01254 9.71259 4.40004 9.65009C3.80004 9.58759 3.35004 9.06259 3.41254 8.45009C3.47504 7.85009 4.01254 7.40009 4.61254 7.46259Z" fill="#F89200"/>
<path d="M11.6497 7.72503C12.0122 7.76253 12.2747 8.07503 12.2497 8.43753C12.2122 8.80003 11.8997 9.06254 11.5372 9.03754C11.1747 9.00004 10.9122 8.68753 10.9372 8.32503C10.9622 7.96253 11.2872 7.70003 11.6497 7.72503Z" fill="#00BC9B"/>
<path d="M12.0872 4.86256C12.4497 4.90006 12.7122 5.21256 12.6872 5.57506C12.6497 5.93756 12.3372 6.20006 11.9747 6.17506C11.6122 6.13756 11.3497 5.82506 11.3747 5.46256C11.3997 5.10006 11.7247 4.82506 12.0872 4.86256Z" fill="#F8BF00"/>
<path d="M7.54999 3.07485C7.78749 3.09985 7.97499 3.31235 7.94999 3.54985C7.92499 3.78735 7.71249 3.97485 7.47499 3.94985C7.23749 3.92485 7.04999 3.71235 7.07499 3.47485C7.09999 3.23735 7.31249 3.06235 7.54999 3.07485Z" fill="#5CD551"/>
<path d="M12.0378 10.425C12.2753 10.45 12.4628 10.6625 12.4378 10.9C12.4128 11.1375 12.2003 11.325 11.9628 11.3C11.7253 11.275 11.5378 11.0625 11.5628 10.825C11.5878 10.575 11.8003 10.4 12.0378 10.425Z" fill="#FF4C9F"/>
<path d="M6.05013 12.4625C5.98763 12.1 6.23763 11.7625 6.58763 11.7C6.95013 11.6375 7.28763 11.8875 7.35013 12.2375C7.41263 12.6 7.16263 12.9375 6.81263 13C6.45013 13.0625 6.11263 12.825 6.05013 12.4625Z" fill="#00BEF2"/>
<path d="M4.92486 4.8249C4.83736 5.0499 4.58736 5.1624 4.36236 5.0874C4.12486 4.9999 4.01236 4.7499 4.09986 4.5249C4.18736 4.2999 4.43736 4.1874 4.66236 4.2624C4.88736 4.3499 4.99986 4.5999 4.92486 4.8249Z" fill="#CE0003" fill-opacity="0.72"/>
<path d="M7.59988 6.33748C7.27488 6.48748 6.87488 6.33748 6.72488 6.01248C6.57488 5.68748 6.72488 5.28748 7.04988 5.13748C7.37488 4.98748 7.77488 5.13748 7.92488 5.46248C8.07488 5.79998 7.92488 6.18748 7.59988 6.33748Z" fill="url(#paint16_radial_683_1769)"/>
<path d="M8.9248 8.9624C8.6998 8.8749 8.5873 8.6249 8.6623 8.3999C8.7498 8.1749 8.9998 8.0624 9.2248 8.1374C9.4498 8.2249 9.5623 8.4749 9.4873 8.6999C9.3998 8.9374 9.1498 9.0499 8.9248 8.9624Z" fill="#3273E2"/>
<path d="M9.03738 11.6374C8.88738 11.4499 8.91238 11.1749 9.09988 11.0249C9.28738 10.8749 9.56238 10.8999 9.71238 11.0874C9.86238 11.2749 9.83738 11.5499 9.64988 11.6999C9.46238 11.8499 9.18738 11.8249 9.03738 11.6374Z" fill="#A680D0"/>
<defs>
<linearGradient id="paint0_linear_683_1769" x1="5.08133" y1="9.55083" x2="6.34745" y2="11.7437" gradientUnits="userSpaceOnUse">
<stop stop-color="#F89200"/>
<stop offset="1" stop-color="#00BEF2"/>
</linearGradient>
<linearGradient id="paint1_linear_683_1769" x1="4.50645" y1="7.50325" x2="4.50645" y2="5.05887" gradientUnits="userSpaceOnUse">
<stop stop-color="#F89200"/>
<stop offset="1" stop-color="#CC1F25"/>
</linearGradient>
<linearGradient id="paint2_linear_683_1769" x1="5.32935" y1="7.73315" x2="6.81697" y2="6.2454" gradientUnits="userSpaceOnUse">
<stop stop-color="#F89200"/>
<stop offset="1" stop-color="#AAAAAA"/>
</linearGradient>
<linearGradient id="paint3_linear_683_1769" x1="5.5625" y1="8.55625" x2="8.69313" y2="8.55625" gradientUnits="userSpaceOnUse">
<stop stop-color="#F89200"/>
<stop offset="1" stop-color="#3273E2"/>
</linearGradient>
<linearGradient id="paint4_linear_683_1769" x1="5.50604" y1="9.1301" x2="8.95329" y2="11.1203" gradientUnits="userSpaceOnUse">
<stop stop-color="#F89200"/>
<stop offset="1" stop-color="#A680D0"/>
</linearGradient>
<linearGradient id="paint5_linear_683_1769" x1="7.33982" y1="12.1151" x2="8.94257" y2="11.5196" gradientUnits="userSpaceOnUse">
<stop stop-color="#00BEF2"/>
<stop offset="1" stop-color="#A680D0"/>
</linearGradient>
<linearGradient id="paint6_linear_683_1769" x1="11.5896" y1="10.9402" x2="9.78797" y2="11.2843" gradientUnits="userSpaceOnUse">
<stop stop-color="#FF4C9F"/>
<stop offset="1" stop-color="#A680D0"/>
</linearGradient>
<linearGradient id="paint7_linear_683_1769" x1="7.05386" y1="3.6849" x2="4.95712" y2="4.4755" gradientUnits="userSpaceOnUse">
<stop stop-color="#5CD551"/>
<stop offset="1" stop-color="#CE0003"/>
</linearGradient>
<linearGradient id="paint8_linear_683_1769" x1="7.37984" y1="5.0843" x2="7.47463" y2="3.91674" gradientUnits="userSpaceOnUse">
<stop stop-color="#AAAAAA"/>
<stop offset="0.184" stop-color="#A2AEA1"/>
<stop offset="0.484" stop-color="#8DBA89"/>
<stop offset="0.861" stop-color="#6ACD61"/>
<stop offset="1" stop-color="#5CD551"/>
</linearGradient>
<linearGradient id="paint9_linear_683_1769" x1="11.3893" y1="5.23624" x2="7.94641" y2="3.70936" gradientUnits="userSpaceOnUse">
<stop stop-color="#F8BF00"/>
<stop offset="1" stop-color="#5CD551"/>
</linearGradient>
<linearGradient id="paint10_linear_683_1769" x1="11.4129" y1="5.5519" x2="7.97077" y2="5.71098" gradientUnits="userSpaceOnUse">
<stop stop-color="#F8BF00"/>
<stop offset="0.6" stop-color="#B6AD91"/>
<stop offset="1" stop-color="#AAAAAA"/>
</linearGradient>
<linearGradient id="paint11_linear_683_1769" x1="9.11469" y1="8.95994" x2="9.32994" y2="10.9811" gradientUnits="userSpaceOnUse">
<stop stop-color="#3273E2"/>
<stop offset="0.99" stop-color="#A680D0"/>
</linearGradient>
<linearGradient id="paint12_linear_683_1769" x1="7.69589" y1="6.34196" x2="8.81739" y2="8.14646" gradientUnits="userSpaceOnUse">
<stop stop-color="#AAAAAA"/>
<stop offset="1" stop-color="#3273E2"/>
</linearGradient>
<linearGradient id="paint13_linear_683_1769" x1="11.9266" y1="6.1544" x2="11.686" y2="7.7449" gradientUnits="userSpaceOnUse">
<stop stop-color="#F8BF00"/>
<stop offset="1" stop-color="#00BC9B"/>
</linearGradient>
<linearGradient id="paint14_linear_683_1769" x1="10.9599" y1="8.42612" x2="9.48082" y2="8.52962" gradientUnits="userSpaceOnUse">
<stop stop-color="#00BC9B"/>
<stop offset="0.99" stop-color="#3273E2"/>
</linearGradient>
<linearGradient id="paint15_linear_683_1769" x1="11.6922" y1="9.02208" x2="11.9331" y2="10.4417" gradientUnits="userSpaceOnUse">
<stop stop-color="#00BC9B"/>
<stop offset="1" stop-color="#FF4C9F"/>
</linearGradient>
<radialGradient id="paint16_radial_683_1769" cx="0" cy="0" r="1" gradientUnits="userSpaceOnUse" gradientTransform="translate(6.84145 6.40207) scale(1.71897 1.7189)">
<stop offset="0.09" stop-color="#FA8F21"/>
<stop offset="0.78" stop-color="#D82D7E"/>
</radialGradient>
</defs>
</svg>
