<svg width="1512" height="982" viewBox="0 0 1512 982" fill="none" xmlns="http://www.w3.org/2000/svg">
<g filter="url(#filter0_f_1573_3622)">
<path d="M217.394 313.347C215.101 319.243 208.549 322.191 202.653 320.226C196.429 317.933 193.481 311.381 195.774 305.485C198.067 299.589 204.619 296.641 210.515 298.606C216.411 300.899 219.359 307.451 217.394 313.347Z" fill="#CE0003"/>
</g>
<g filter="url(#filter1_f_1573_3622)">
<path d="M731.309 699.036C734.946 699.419 737.817 702.674 737.434 706.311C737.052 709.948 733.797 712.819 730.16 712.436C726.523 712.054 723.651 708.799 724.034 705.162C724.417 701.334 727.671 698.654 731.309 699.036Z" fill="#FF4C9F"/>
</g>
<g filter="url(#filter2_f_1573_3622)">
<path d="M415.512 129.487C418.752 129.828 421.311 132.727 420.969 135.968C420.628 139.208 417.729 141.767 414.488 141.425C411.248 141.084 408.689 138.185 409.031 134.944C409.372 131.704 412.271 129.316 415.512 129.487Z" fill="#5CD551"/>
</g>
<g filter="url(#filter3_f_1573_3622)">
<path d="M800.773 123.22C805.73 123.732 809.319 128.006 808.977 132.963C808.465 137.92 804.191 141.51 799.234 141.168C794.277 140.655 790.687 136.382 791.029 131.425C791.371 126.467 795.816 122.707 800.773 123.22Z" fill="#F8BF00"/>
</g>
<g filter="url(#filter4_f_1573_3622)">
<path d="M1367.46 184.04C1376.33 184.957 1382.75 192.599 1382.14 201.463C1381.22 210.327 1373.58 216.746 1364.71 216.135C1355.85 215.218 1349.43 207.576 1350.04 198.712C1350.65 189.848 1358.6 183.429 1367.46 184.04Z" fill="#00BC9B"/>
</g>
<g filter="url(#filter5_f_1573_3622)">
<path d="M1051.25 360.015C1049.63 350.618 1056.11 341.869 1065.18 340.249C1074.58 338.629 1083.33 345.109 1084.95 354.183C1086.57 363.58 1080.09 372.329 1071.02 373.949C1061.62 375.569 1052.87 369.412 1051.25 360.015Z" fill="#00BEF2"/>
</g>
<g filter="url(#filter6_f_1573_3622)">
<path d="M1236.7 726.968C1233 725.527 1231.15 721.41 1232.38 717.704C1233.82 713.999 1237.94 712.146 1241.64 713.381C1245.35 714.822 1247.2 718.939 1245.97 722.645C1244.53 726.556 1240.41 728.409 1236.7 726.968Z" fill="#3273E2"/>
</g>
<g filter="url(#filter7_f_1573_3622)">
<path d="M222.434 731.156C216.711 733.797 209.669 731.156 207.028 725.434C204.387 719.711 207.028 712.669 212.75 710.028C218.472 707.387 225.515 710.028 228.156 715.75C230.797 721.692 228.156 728.515 222.434 731.156Z" fill="url(#paint0_linear_1573_3622)"/>
</g>
<g filter="url(#filter8_f_1573_3622)">
<path d="M409.497 432.118C421.687 433.388 430.829 444.054 429.56 456.497C428.29 468.687 417.624 477.829 405.18 476.56C392.99 475.29 383.848 464.624 385.118 452.18C386.388 439.99 397.308 430.848 409.497 432.118Z" fill="#F89200"/>
</g>
<defs>
<filter id="filter0_f_1573_3622" x="190" y="293" width="33" height="32.832" filterUnits="userSpaceOnUse" color-interpolation-filters="sRGB">
<feFlood flood-opacity="0" result="BackgroundImageFix"/>
<feBlend mode="normal" in="SourceGraphic" in2="BackgroundImageFix" result="shape"/>
<feGaussianBlur stdDeviation="2.5" result="effect1_foregroundBlur_1573_3622"/>
</filter>
<filter id="filter1_f_1573_3622" x="719" y="694" width="23.4688" height="23.4707" filterUnits="userSpaceOnUse" color-interpolation-filters="sRGB">
<feFlood flood-opacity="0" result="BackgroundImageFix"/>
<feBlend mode="normal" in="SourceGraphic" in2="BackgroundImageFix" result="shape"/>
<feGaussianBlur stdDeviation="2.5" result="effect1_foregroundBlur_1573_3622"/>
</filter>
<filter id="filter2_f_1573_3622" x="404" y="124.478" width="22" height="21.978" filterUnits="userSpaceOnUse" color-interpolation-filters="sRGB">
<feFlood flood-opacity="0" result="BackgroundImageFix"/>
<feBlend mode="normal" in="SourceGraphic" in2="BackgroundImageFix" result="shape"/>
<feGaussianBlur stdDeviation="2.5" result="effect1_foregroundBlur_1573_3622"/>
</filter>
<filter id="filter3_f_1573_3622" x="786.007" y="118.173" width="27.9932" height="28.0176" filterUnits="userSpaceOnUse" color-interpolation-filters="sRGB">
<feFlood flood-opacity="0" result="BackgroundImageFix"/>
<feBlend mode="normal" in="SourceGraphic" in2="BackgroundImageFix" result="shape"/>
<feGaussianBlur stdDeviation="2.5" result="effect1_foregroundBlur_1573_3622"/>
</filter>
<filter id="filter4_f_1573_3622" x="1345" y="179" width="42.1753" height="42.1753" filterUnits="userSpaceOnUse" color-interpolation-filters="sRGB">
<feFlood flood-opacity="0" result="BackgroundImageFix"/>
<feBlend mode="normal" in="SourceGraphic" in2="BackgroundImageFix" result="shape"/>
<feGaussianBlur stdDeviation="2.5" result="effect1_foregroundBlur_1573_3622"/>
</filter>
<filter id="filter5_f_1573_3622" x="1046" y="335" width="44.1978" height="44.2074" filterUnits="userSpaceOnUse" color-interpolation-filters="sRGB">
<feFlood flood-opacity="0" result="BackgroundImageFix"/>
<feBlend mode="normal" in="SourceGraphic" in2="BackgroundImageFix" result="shape"/>
<feGaussianBlur stdDeviation="2.5" result="effect1_foregroundBlur_1573_3622"/>
</filter>
<filter id="filter6_f_1573_3622" x="1227" y="708" width="24.3489" height="24.4543" filterUnits="userSpaceOnUse" color-interpolation-filters="sRGB">
<feFlood flood-opacity="0" result="BackgroundImageFix"/>
<feBlend mode="normal" in="SourceGraphic" in2="BackgroundImageFix" result="shape"/>
<feGaussianBlur stdDeviation="2.5" result="effect1_foregroundBlur_1573_3622"/>
</filter>
<filter id="filter7_f_1573_3622" x="201" y="704" width="33.1836" height="33.1833" filterUnits="userSpaceOnUse" color-interpolation-filters="sRGB">
<feFlood flood-opacity="0" result="BackgroundImageFix"/>
<feBlend mode="normal" in="SourceGraphic" in2="BackgroundImageFix" result="shape"/>
<feGaussianBlur stdDeviation="2.5" result="effect1_foregroundBlur_1573_3622"/>
</filter>
<filter id="filter8_f_1573_3622" x="380" y="427" width="54.6772" height="54.6774" filterUnits="userSpaceOnUse" color-interpolation-filters="sRGB">
<feFlood flood-opacity="0" result="BackgroundImageFix"/>
<feBlend mode="normal" in="SourceGraphic" in2="BackgroundImageFix" result="shape"/>
<feGaussianBlur stdDeviation="2.5" result="effect1_foregroundBlur_1573_3622"/>
</filter>
<linearGradient id="paint0_linear_1573_3622" x1="206.803" y1="731.559" x2="216.254" y2="707.752" gradientUnits="userSpaceOnUse">
<stop stop-color="#FC2C46"/>
<stop offset="0.0001" stop-color="#FBAB48"/>
<stop offset="0.39864" stop-color="#FC3746"/>
<stop offset="0.85431" stop-color="#FC2C46" stop-opacity="0.54"/>
</linearGradient>
</defs>
</svg>
