<svg width="137" height="136" viewBox="0 0 137 136" fill="none" xmlns="http://www.w3.org/2000/svg">
<path d="M42.8291 80.8978L44.6339 79.8361L56.2059 99.9013L54.4011 100.963L42.8291 80.8978Z" fill="url(#paint0_linear_1235_3513)"/>
<path d="M38.2642 42.9968H40.2813V63.8052H38.2642V42.9968Z" fill="url(#paint1_linear_1235_3513)"/>
<path d="M46.332 67.0963L44.8457 65.61L58.8595 51.7024L60.2396 53.0825L46.332 67.0963Z" fill="url(#paint2_linear_1235_3513)"/>
<path d="M48.2437 71.6614H74.7849V73.6785H48.2437V71.6614Z" fill="url(#paint3_linear_1235_3513)"/>
<path d="M46.5449 78.0313L47.5004 76.2265L78.2883 93.9561L77.2266 95.7609L46.5449 78.0313Z" fill="url(#paint4_linear_1235_3513)"/>
<path d="M63.1064 104.042L62.3633 102.131L77.2264 96.7163L77.8634 98.6273L63.1064 104.042Z" fill="url(#paint5_linear_1235_3513)"/>
<path d="M99.6271 91.8328L99.9456 93.8499L83.9147 96.9287L83.5962 94.9116L99.6271 91.8328Z" fill="url(#paint6_linear_1235_3513)"/>
<path d="M61.4082 30.0447L62.1513 31.9556L42.7231 39.4934L41.98 37.5824L61.4082 30.0447Z" fill="url(#paint7_linear_1235_3513)"/>
<path d="M64.6993 43.6338L62.6821 43.4214L63.5315 33.0173L65.5486 33.2296L64.6993 43.6338Z" fill="url(#paint8_linear_1235_3513)"/>
<path d="M98.7782 43.8461L98.035 45.6509L67.4595 32.168L68.2026 30.257L98.7782 43.8461Z" fill="url(#paint9_linear_1235_3513)"/>
<path d="M97.9286 46.0756L98.0348 48.1989L68.4148 49.5791L68.3086 47.4558L97.9286 46.0756Z" fill="url(#paint10_linear_1235_3513)"/>
<path d="M77.3325 76.0142L79.4558 75.8019L81.2606 93.3191L79.2435 93.5314L77.3325 76.0142Z" fill="url(#paint11_linear_1235_3513)"/>
<path d="M65.0171 53.7195L66.8219 52.5517L77.2261 69.3258L75.4213 70.4936L65.0171 53.7195Z" fill="url(#paint12_linear_1235_3513)"/>
<path d="M101.326 51.8085L103.343 52.127L101.22 66.247L99.2026 65.9285L101.326 51.8085Z" fill="url(#paint13_linear_1235_3513)"/>
<path d="M94.1067 70.4936L94.319 72.6169L81.4731 73.4662L81.2607 71.4491L94.1067 70.4936Z" fill="url(#paint14_linear_1235_3513)"/>
<path d="M99.2026 76.4389L101.22 76.1204L103.449 88.8602L101.432 89.1787L99.2026 76.4389Z" fill="url(#paint15_linear_1235_3513)"/>
<path d="M40.1747 63.3805C45.2706 63.9113 49.0926 68.3703 48.5617 73.5724C48.0309 78.6683 43.572 82.4902 38.3699 81.9594C33.274 81.4286 29.452 76.9696 29.9829 71.7675C30.5137 66.6716 35.0788 62.8497 40.1747 63.3805Z" fill="#F89200"/>
<path d="M99.9458 65.6101C103.025 65.9285 105.254 68.5827 105.042 71.6615C104.723 74.7402 102.069 76.9697 98.9903 76.7574C95.9115 76.4389 93.682 73.7848 93.8944 70.706C94.1067 67.6272 96.867 65.3977 99.9458 65.6101Z" fill="#00BC9B"/>
<path d="M103.662 41.2981C106.74 41.6166 108.97 44.2708 108.758 47.3495C108.439 50.4283 105.785 52.6578 102.706 52.4455C99.6273 52.127 97.3978 49.4728 97.6102 46.3941C97.8225 43.3153 100.583 40.9796 103.662 41.2981Z" fill="#F8BF00"/>
<path d="M65.1236 26.1166C67.1407 26.3289 68.7332 28.1338 68.5209 30.1509C68.3086 32.168 66.5038 33.7605 64.4866 33.5482C62.4695 33.3358 60.877 31.531 61.0893 29.5139C61.3017 27.4968 63.1065 26.0105 65.1236 26.1166Z" fill="#5CD551"/>
<path d="M103.237 88.5416C105.254 88.7539 106.847 90.5587 106.634 92.5759C106.422 94.593 104.617 96.1855 102.6 95.9731C100.583 95.7608 98.9903 93.956 99.2026 91.9389C99.4149 89.8156 101.22 88.3293 103.237 88.5416Z" fill="#FF4C9F"/>
<path d="M52.3838 105.847C51.8529 102.768 53.9762 99.9013 56.9489 99.3705C60.0277 98.8396 62.8941 100.963 63.4249 103.936C63.9558 107.014 61.8325 109.881 58.8598 110.412C55.7811 110.942 52.9146 108.925 52.3838 105.847Z" fill="#00BEF2"/>
<path d="M42.8287 40.9798C42.0855 42.8907 39.9622 43.8462 38.0512 43.2092C36.0341 42.4661 35.0786 40.3428 35.8218 38.4318C36.5649 36.5208 38.6882 35.5653 40.5992 36.2023C42.5102 36.9455 43.4656 39.0688 42.8287 40.9798Z" fill="#CE0003"/>
<path d="M65.5484 53.8257C62.7881 55.0997 59.3909 53.8257 58.1169 51.0654C56.8429 48.3051 58.1169 44.9078 60.8772 43.6338C63.6375 42.3599 67.0347 43.6338 68.3087 46.3941C69.5827 49.2606 68.3087 52.5517 65.5484 53.8257Z" fill="url(#paint16_linear_1235_3513)"/>
<path d="M76.8015 76.1203C74.8905 75.3772 73.935 73.2539 74.572 71.3429C75.3152 69.432 77.4385 68.4765 79.3494 69.1135C81.2604 69.8566 82.2159 71.9799 81.5789 73.8909C80.8358 75.908 78.7125 76.8635 76.8015 76.1203Z" fill="#3273E2"/>
<path d="M77.7572 98.8397C76.4832 97.2472 76.6956 94.9116 78.2881 93.6376C79.8805 92.3636 82.2162 92.576 83.4901 94.1684C84.7641 95.7609 84.5518 98.0965 82.9593 99.3705C81.3668 100.644 79.0312 100.432 77.7572 98.8397Z" fill="#A680D0"/>
<defs>
<linearGradient id="paint0_linear_1235_3513" x1="44.1585" y1="81.118" x2="54.912" y2="99.7425" gradientUnits="userSpaceOnUse">
<stop stop-color="#F89200"/>
<stop offset="1" stop-color="#00BEF2"/>
</linearGradient>
<linearGradient id="paint1_linear_1235_3513" x1="39.2727" y1="63.7266" x2="39.2727" y2="42.966" gradientUnits="userSpaceOnUse">
<stop stop-color="#F89200"/>
<stop offset="1" stop-color="#CC1F25"/>
</linearGradient>
<linearGradient id="paint2_linear_1235_3513" x1="46.2619" y1="65.6801" x2="58.8966" y2="53.0443" gradientUnits="userSpaceOnUse">
<stop stop-color="#F89200"/>
<stop offset="1" stop-color="#AAAAAA"/>
</linearGradient>
<linearGradient id="paint3_linear_1235_3513" x1="48.2437" y1="72.6699" x2="74.8327" y2="72.6699" gradientUnits="userSpaceOnUse">
<stop stop-color="#F89200"/>
<stop offset="1" stop-color="#3273E2"/>
</linearGradient>
<linearGradient id="paint4_linear_1235_3513" x1="47.7657" y1="77.5429" x2="77.0439" y2="94.4465" gradientUnits="userSpaceOnUse">
<stop stop-color="#F89200"/>
<stop offset="1" stop-color="#A680D0"/>
</linearGradient>
<linearGradient id="paint5_linear_1235_3513" x1="63.3377" y1="102.896" x2="76.9501" y2="97.8388" gradientUnits="userSpaceOnUse">
<stop stop-color="#00BEF2"/>
<stop offset="1" stop-color="#A680D0"/>
</linearGradient>
<linearGradient id="paint6_linear_1235_3513" x1="99.4318" y1="92.9175" x2="84.1302" y2="95.8402" gradientUnits="userSpaceOnUse">
<stop stop-color="#FF4C9F"/>
<stop offset="1" stop-color="#A680D0"/>
</linearGradient>
<linearGradient id="paint7_linear_1235_3513" x1="61.1619" y1="31.2683" x2="42.9939" y2="38.2604" gradientUnits="userSpaceOnUse">
<stop stop-color="#5CD551"/>
<stop offset="1" stop-color="#CE0003"/>
</linearGradient>
<linearGradient id="paint8_linear_1235_3513" x1="63.696" y1="43.3808" x2="64.5347" y2="33.2696" gradientUnits="userSpaceOnUse">
<stop stop-color="#AAAAAA"/>
<stop offset="0.184" stop-color="#A2AEA1"/>
<stop offset="0.484" stop-color="#8DBA89"/>
<stop offset="0.861" stop-color="#6ACD61"/>
<stop offset="1" stop-color="#5CD551"/>
</linearGradient>
<linearGradient id="paint9_linear_1235_3513" x1="97.73" y1="44.4724" x2="68.489" y2="31.5044" gradientUnits="userSpaceOnUse">
<stop stop-color="#F8BF00"/>
<stop offset="1" stop-color="#5CD551"/>
</linearGradient>
<linearGradient id="paint10_linear_1235_3513" x1="97.9103" y1="47.1383" x2="68.4569" y2="48.5153" gradientUnits="userSpaceOnUse">
<stop stop-color="#F8BF00"/>
<stop offset="0.6" stop-color="#B6AD91"/>
<stop offset="1" stop-color="#AAAAAA"/>
</linearGradient>
<linearGradient id="paint11_linear_1235_3513" x1="78.4144" y1="76.0982" x2="80.2426" y2="93.264" gradientUnits="userSpaceOnUse">
<stop stop-color="#3273E2"/>
<stop offset="0.99" stop-color="#A680D0"/>
</linearGradient>
<linearGradient id="paint12_linear_1235_3513" x1="66.3615" y1="53.8636" x2="75.8866" y2="69.1896" gradientUnits="userSpaceOnUse">
<stop stop-color="#AAAAAA"/>
<stop offset="1" stop-color="#3273E2"/>
</linearGradient>
<linearGradient id="paint13_linear_1235_3513" x1="102.295" y1="52.2697" x2="100.252" y2="65.7782" gradientUnits="userSpaceOnUse">
<stop stop-color="#F8BF00"/>
<stop offset="1" stop-color="#00BC9B"/>
</linearGradient>
<linearGradient id="paint14_linear_1235_3513" x1="94.0834" y1="71.5644" x2="81.5208" y2="72.4434" gradientUnits="userSpaceOnUse">
<stop stop-color="#00BC9B"/>
<stop offset="0.99" stop-color="#3273E2"/>
</linearGradient>
<linearGradient id="paint15_linear_1235_3513" x1="100.304" y1="76.6272" x2="102.35" y2="88.6844" gradientUnits="userSpaceOnUse">
<stop stop-color="#00BC9B"/>
<stop offset="1" stop-color="#FF4C9F"/>
</linearGradient>
<linearGradient id="paint16_linear_1235_3513" x1="58.0082" y1="54.0204" x2="62.5676" y2="42.5359" gradientUnits="userSpaceOnUse">
<stop stop-color="#FC2C46"/>
<stop offset="0.0001" stop-color="#FBAB48"/>
<stop offset="0.39864" stop-color="#FC3746"/>
<stop offset="0.85431" stop-color="#FC2C46" stop-opacity="0.54"/>
</linearGradient>
</defs>
</svg>
