<svg width="181" height="72" viewBox="0 0 181 72" fill="none" xmlns="http://www.w3.org/2000/svg">
<path d="M21.9053 42.3656L22.8504 41.8096L28.9106 52.3176L27.9654 52.8736L21.9053 42.3656Z" fill="url(#paint0_linear_1263_3876)"/>
<path d="M19.5146 22.5171H20.571V33.4143H19.5146V22.5171Z" fill="url(#paint1_linear_1263_3876)"/>
<path d="M23.7403 35.1377L22.9619 34.3594L30.3008 27.0761L31.0236 27.7988L23.7403 35.1377Z" fill="url(#paint2_linear_1263_3876)"/>
<path d="M24.7412 37.5286H38.6407V38.5849H24.7412V37.5286Z" fill="url(#paint3_linear_1263_3876)"/>
<path d="M23.8516 40.8644L24.3519 39.9193L40.4753 49.2041L39.9193 50.1493L23.8516 40.8644Z" fill="url(#paint4_linear_1263_3876)"/>
<path d="M32.5244 54.4859L32.1353 53.4852L39.919 50.6497L40.2525 51.6504L32.5244 54.4859Z" fill="url(#paint5_linear_1263_3876)"/>
<path d="M51.6502 48.0921L51.8169 49.1484L43.4217 50.7608L43.2549 49.7044L51.6502 48.0921Z" fill="url(#paint6_linear_1263_3876)"/>
<path d="M31.4998 15.7518L31.8793 16.7479L21.9581 20.6766L21.5786 19.6806L31.4998 15.7518Z" fill="url(#paint7_linear_1263_3876)"/>
<path d="M33.3512 22.7443L32.293 22.6353L32.7385 17.2932L33.7967 17.4022L33.3512 22.7443Z" fill="url(#paint8_linear_1263_3876)"/>
<path d="M51.2056 22.9619L50.8164 23.9071L34.8042 16.8461L35.1934 15.8454L51.2056 22.9619Z" fill="url(#paint9_linear_1263_3876)"/>
<path d="M50.7719 24.1353L50.8271 25.2517L35.4312 25.9774L35.376 24.8609L50.7719 24.1353Z" fill="url(#paint10_linear_1263_3876)"/>
<path d="M39.9746 39.808L41.0866 39.6968L42.0317 48.8704L40.9754 48.9816L39.9746 39.808Z" fill="url(#paint11_linear_1263_3876)"/>
<path d="M33.5254 28.1325L34.4706 27.5209L39.9191 36.3054L38.974 36.917L33.5254 28.1325Z" fill="url(#paint12_linear_1263_3876)"/>
<path d="M52.5402 27.1318L53.5965 27.2986L52.4846 34.6931L51.4282 34.5263L52.5402 27.1318Z" fill="url(#paint13_linear_1263_3876)"/>
<path d="M48.7596 36.9169L48.8708 38.0289L42.1434 38.4737L42.0322 37.4173L48.7596 36.9169Z" fill="url(#paint14_linear_1263_3876)"/>
<path d="M51.4282 40.0304L52.4846 39.8636L53.6521 46.5353L52.5958 46.7021L51.4282 40.0304Z" fill="url(#paint15_linear_1263_3876)"/>
<path d="M20.5155 33.192C23.1842 33.4699 25.1858 35.8051 24.9078 38.5293C24.6298 41.198 22.2947 43.1996 19.5704 42.9216C16.9017 42.6436 14.9002 40.3085 15.1781 37.5842C15.4561 34.9155 17.8468 32.914 20.5155 33.192Z" fill="#F89200"/>
<path d="M51.817 34.3595C53.4294 34.5263 54.5969 35.9162 54.4857 37.5286C54.3189 39.1409 52.929 40.3085 51.3166 40.1973C49.7043 40.0305 48.5368 38.6405 48.6479 37.0282C48.7591 35.4159 50.2047 34.2483 51.817 34.3595Z" fill="#00BC9B"/>
<path d="M53.7633 21.6276C55.3756 21.7944 56.5432 23.1843 56.432 24.7967C56.2652 26.409 54.8753 27.5765 53.2629 27.4654C51.6506 27.2986 50.483 25.9086 50.5942 24.2963C50.7054 22.6839 52.151 21.4608 53.7633 21.6276Z" fill="#F8BF00"/>
<path d="M33.5812 13.6771C34.6375 13.7883 35.4715 14.7334 35.3603 15.7898C35.2491 16.8461 34.304 17.6801 33.2476 17.5689C32.1912 17.4577 31.3573 16.5126 31.4685 15.4562C31.5797 14.3998 32.5248 13.6215 33.5812 13.6771Z" fill="#5CD551"/>
<path d="M53.5407 46.3686C54.597 46.4798 55.431 47.4249 55.3198 48.4813C55.2086 49.5376 54.2634 50.3716 53.2071 50.2604C52.1507 50.1492 51.3167 49.204 51.4279 48.1477C51.5391 47.0357 52.4843 46.2574 53.5407 46.3686Z" fill="#FF4C9F"/>
<path d="M26.9094 55.431C26.6314 53.8187 27.7434 52.3176 29.3001 52.0396C30.9124 51.7616 32.4136 52.8735 32.6916 54.4303C32.9696 56.0426 31.8576 57.5438 30.3009 57.8217C28.6885 58.0997 27.1874 57.0434 26.9094 55.431Z" fill="#00BEF2"/>
<path d="M21.9054 21.4607C21.5162 22.4614 20.4042 22.9618 19.4035 22.6282C18.3471 22.2391 17.8467 21.1271 18.2359 20.1263C18.6251 19.1256 19.7371 18.6252 20.7378 18.9588C21.7386 19.348 22.239 20.4599 21.9054 21.4607Z" fill="#CE0003" fill-opacity="0.72"/>
<path d="M33.8033 28.1881C32.3578 28.8553 30.5787 28.1881 29.9115 26.7426C29.2443 25.297 29.9115 23.5179 31.357 22.8507C32.8026 22.1835 34.5817 22.8507 35.2489 24.2962C35.9161 25.7974 35.2489 27.5209 33.8033 28.1881Z" fill="url(#paint16_radial_1263_3876)"/>
<path d="M39.6967 39.8636C38.696 39.4744 38.1956 38.3625 38.5292 37.3617C38.9184 36.361 40.0303 35.8606 41.0311 36.1942C42.0319 36.5834 42.5322 37.6953 42.1986 38.6961C41.8095 39.7524 40.6975 40.2528 39.6967 39.8636Z" fill="#3273E2"/>
<path d="M40.197 51.7616C39.5299 50.9276 39.6411 49.7045 40.475 49.0373C41.309 48.3701 42.5322 48.4813 43.1993 49.3153C43.8665 50.1492 43.7553 51.3724 42.9213 52.0396C42.0874 52.7067 40.8642 52.5955 40.197 51.7616Z" fill="#A680D0"/>
<path d="M76.5062 41.1607C76.5062 42.4312 76.1984 43.5355 75.5827 44.4738C74.967 45.412 74.0679 46.1352 72.8853 46.6434C71.7125 47.1516 70.2857 47.4057 68.6047 47.4057C67.862 47.4057 67.1339 47.3568 66.4204 47.2591C65.7168 47.1614 65.0375 47.0196 64.3828 46.834C63.7377 46.6385 63.122 46.3991 62.5356 46.1156V41.8937C63.552 42.3432 64.6075 42.7488 65.7021 43.1104C66.7967 43.472 67.8815 43.6528 68.9565 43.6528C69.6993 43.6528 70.2955 43.5551 70.745 43.3596C71.2043 43.1642 71.5366 42.8954 71.7419 42.5534C71.9471 42.2113 72.0497 41.8204 72.0497 41.3806C72.0497 40.8431 71.8689 40.3837 71.5073 40.0026C71.1457 39.6214 70.6473 39.2647 70.012 38.9324C69.3866 38.6002 68.678 38.2434 67.8864 37.8623C67.388 37.6277 66.8456 37.3443 66.2592 37.012C65.6728 36.67 65.1157 36.2546 64.588 35.766C64.0602 35.2773 63.6253 34.686 63.2833 33.9922C62.951 33.2885 62.7849 32.448 62.7849 31.4707C62.7849 30.1904 63.078 29.0958 63.6644 28.187C64.2508 27.2781 65.0864 26.5842 66.1712 26.1053C67.2658 25.6166 68.5558 25.3723 70.0414 25.3723C71.1555 25.3723 72.2159 25.5042 73.2225 25.7681C74.2389 26.0222 75.2993 26.3936 76.4036 26.8823L74.9377 30.4152C73.9506 30.0145 73.0661 29.7067 72.2843 29.4917C71.5024 29.2669 70.7059 29.1545 69.8948 29.1545C69.3279 29.1545 68.8442 29.2473 68.4435 29.433C68.0428 29.6089 67.7398 29.863 67.5346 30.1953C67.3293 30.5178 67.2267 30.8941 67.2267 31.3241C67.2267 31.8323 67.3733 32.2623 67.6665 32.6142C67.9695 32.9562 68.419 33.2885 69.0152 33.611C69.6211 33.9335 70.3736 34.3098 71.2728 34.7398C72.3673 35.2578 73.3007 35.8002 74.0727 36.367C74.8546 36.9241 75.4556 37.5838 75.8759 38.3461C76.2961 39.0986 76.5062 40.0368 76.5062 41.1607Z" fill="white"/>
<path d="M99.2872 30.4152C101.144 30.4152 102.547 30.8941 103.495 31.8519C104.452 32.7998 104.931 34.3244 104.931 36.4256V47.1125H100.445V37.5398C100.445 36.367 100.245 35.4825 99.8443 34.8864C99.4436 34.2902 98.823 33.9922 97.9825 33.9922C96.8 33.9922 95.9595 34.4173 95.4611 35.2675C94.9627 36.108 94.7134 37.315 94.7134 38.8885V47.1125H90.2423V37.5398C90.2423 36.7579 90.1543 36.1031 89.9784 35.5754C89.8025 35.0476 89.5337 34.6518 89.1721 34.388C88.8105 34.1241 88.3463 33.9922 87.7795 33.9922C86.9487 33.9922 86.2939 34.2023 85.8151 34.6225C85.346 35.033 85.0088 35.6438 84.8036 36.455C84.6081 37.2564 84.5104 38.2385 84.5104 39.4015V47.1125H80.0392V30.7231H83.4549L84.0559 32.8194H84.3051C84.6374 32.2525 85.0528 31.7932 85.5512 31.4414C86.0594 31.0896 86.6165 30.8306 87.2224 30.6644C87.8283 30.4983 88.444 30.4152 89.0695 30.4152C90.2716 30.4152 91.288 30.6107 92.1187 31.0016C92.9592 31.3925 93.6042 31.9984 94.0538 32.8194H94.4496C94.9382 31.9789 95.6272 31.3681 96.5166 30.9869C97.4157 30.6058 98.3392 30.4152 99.2872 30.4152Z" fill="white"/>
<path d="M108.083 40.8968V37.2319H115.955V40.8968H108.083Z" fill="white"/>
<path d="M145.89 25.6802L140.437 47.1125H135.262L132.359 35.8539C132.301 35.6389 132.222 35.3115 132.125 34.8717C132.027 34.4319 131.924 33.9531 131.817 33.4351C131.709 32.9073 131.612 32.4138 131.524 31.9545C131.445 31.4854 131.392 31.114 131.362 30.8403C131.333 31.114 131.274 31.4805 131.186 31.9398C131.108 32.3991 131.015 32.8878 130.908 33.4058C130.81 33.9237 130.713 34.4075 130.615 34.8571C130.517 35.3066 130.439 35.6487 130.38 35.8832L127.492 47.1125H122.332L116.864 25.6802H121.335L124.077 37.3785C124.155 37.7303 124.243 38.1506 124.34 38.6392C124.448 39.1279 124.551 39.641 124.648 40.1785C124.756 40.7062 124.849 41.2193 124.927 41.7178C125.015 42.2064 125.078 42.6315 125.117 42.9931C125.166 42.6218 125.23 42.1917 125.308 41.7031C125.386 41.2047 125.469 40.7014 125.557 40.1932C125.655 39.6752 125.753 39.1963 125.85 38.7565C125.948 38.3167 126.036 37.96 126.114 37.6864L129.237 25.6802H133.532L136.655 37.6864C136.723 37.9502 136.801 38.307 136.889 38.7565C136.987 39.1963 137.085 39.6752 137.182 40.1932C137.28 40.7111 137.368 41.2193 137.446 41.7178C137.534 42.2064 137.598 42.6315 137.637 42.9931C137.705 42.5045 137.798 41.9132 137.915 41.2193C138.042 40.5157 138.174 39.8169 138.311 39.123C138.458 38.4291 138.585 37.8476 138.692 37.3785L141.419 25.6802H145.89Z" fill="white"/>
<path d="M154.95 30.3859C157.149 30.3859 158.834 30.8648 160.007 31.8225C161.18 32.7803 161.766 34.2365 161.766 36.1911V47.1125H158.644L157.779 44.8842H157.662C157.193 45.4706 156.714 45.9495 156.225 46.3209C155.736 46.6922 155.174 46.9659 154.539 47.1418C153.904 47.3177 153.132 47.4057 152.223 47.4057C151.255 47.4057 150.386 47.22 149.614 46.8486C148.851 46.4772 148.25 45.9104 147.81 45.1481C147.371 44.376 147.151 43.3987 147.151 42.2162C147.151 40.4766 147.762 39.1963 148.983 38.3754C150.205 37.5447 152.037 37.0853 154.481 36.9974L157.325 36.9094V36.1911C157.325 35.3311 157.1 34.7007 156.65 34.3C156.201 33.8993 155.575 33.699 154.774 33.699C153.982 33.699 153.205 33.8113 152.443 34.0361C151.681 34.2609 150.918 34.5443 150.156 34.8864L148.675 31.8665C149.545 31.4072 150.518 31.0456 151.593 30.7817C152.677 30.5178 153.796 30.3859 154.95 30.3859ZM157.325 39.5188L155.595 39.5775C154.148 39.6165 153.142 39.8755 152.575 40.3544C152.018 40.8333 151.739 41.4637 151.739 42.2455C151.739 42.9296 151.94 43.4183 152.34 43.7115C152.741 43.9949 153.264 44.1366 153.909 44.1366C154.867 44.1366 155.673 43.8532 156.328 43.2863C156.992 42.7195 157.325 41.9132 157.325 40.8675V39.5188Z" fill="white"/>
<path d="M170.855 47.1125H166.384V24.3022H170.855V47.1125Z" fill="white"/>
<path d="M180.032 47.1125H175.561V24.3022H180.032V47.1125Z" fill="white"/>
<defs>
<linearGradient id="paint0_linear_1263_3876" x1="22.6015" y1="42.4809" x2="28.233" y2="52.2344" gradientUnits="userSpaceOnUse">
<stop stop-color="#F89200"/>
<stop offset="1" stop-color="#00BEF2"/>
</linearGradient>
<linearGradient id="paint1_linear_1263_3876" x1="20.0428" y1="33.3731" x2="20.0428" y2="22.501" gradientUnits="userSpaceOnUse">
<stop stop-color="#F89200"/>
<stop offset="1" stop-color="#CC1F25"/>
</linearGradient>
<linearGradient id="paint2_linear_1263_3876" x1="23.7036" y1="34.3961" x2="30.3203" y2="27.7788" gradientUnits="userSpaceOnUse">
<stop stop-color="#F89200"/>
<stop offset="1" stop-color="#AAAAAA"/>
</linearGradient>
<linearGradient id="paint3_linear_1263_3876" x1="24.7412" y1="38.0567" x2="38.6657" y2="38.0567" gradientUnits="userSpaceOnUse">
<stop stop-color="#F89200"/>
<stop offset="1" stop-color="#3273E2"/>
</linearGradient>
<linearGradient id="paint4_linear_1263_3876" x1="24.4909" y1="40.6087" x2="39.8237" y2="49.461" gradientUnits="userSpaceOnUse">
<stop stop-color="#F89200"/>
<stop offset="1" stop-color="#A680D0"/>
</linearGradient>
<linearGradient id="paint5_linear_1263_3876" x1="32.6455" y1="53.8862" x2="39.7743" y2="51.2375" gradientUnits="userSpaceOnUse">
<stop stop-color="#00BEF2"/>
<stop offset="1" stop-color="#A680D0"/>
</linearGradient>
<linearGradient id="paint6_linear_1263_3876" x1="51.5479" y1="48.6601" x2="43.5345" y2="50.1907" gradientUnits="userSpaceOnUse">
<stop stop-color="#FF4C9F"/>
<stop offset="1" stop-color="#A680D0"/>
</linearGradient>
<linearGradient id="paint7_linear_1263_3876" x1="31.3741" y1="16.3896" x2="22.0481" y2="19.9061" gradientUnits="userSpaceOnUse">
<stop stop-color="#5CD551"/>
<stop offset="1" stop-color="#CE0003"/>
</linearGradient>
<linearGradient id="paint8_linear_1263_3876" x1="32.8249" y1="22.6144" x2="33.2465" y2="17.4212" gradientUnits="userSpaceOnUse">
<stop stop-color="#AAAAAA"/>
<stop offset="0.184" stop-color="#A2AEA1"/>
<stop offset="0.484" stop-color="#8DBA89"/>
<stop offset="0.861" stop-color="#6ACD61"/>
<stop offset="1" stop-color="#5CD551"/>
</linearGradient>
<linearGradient id="paint9_linear_1263_3876" x1="50.6566" y1="23.2899" x2="35.3433" y2="16.4986" gradientUnits="userSpaceOnUse">
<stop stop-color="#F8BF00"/>
<stop offset="1" stop-color="#5CD551"/>
</linearGradient>
<linearGradient id="paint10_linear_1263_3876" x1="50.7623" y1="24.694" x2="35.4523" y2="25.4016" gradientUnits="userSpaceOnUse">
<stop stop-color="#F8BF00"/>
<stop offset="0.6" stop-color="#B6AD91"/>
<stop offset="1" stop-color="#AAAAAA"/>
</linearGradient>
<linearGradient id="paint11_linear_1263_3876" x1="40.5412" y1="39.852" x2="41.4986" y2="48.8416" gradientUnits="userSpaceOnUse">
<stop stop-color="#3273E2"/>
<stop offset="0.99" stop-color="#A680D0"/>
</linearGradient>
<linearGradient id="paint12_linear_1263_3876" x1="34.2294" y1="28.208" x2="39.2177" y2="36.2341" gradientUnits="userSpaceOnUse">
<stop stop-color="#AAAAAA"/>
<stop offset="1" stop-color="#3273E2"/>
</linearGradient>
<linearGradient id="paint13_linear_1263_3876" x1="53.0478" y1="27.3733" x2="51.9776" y2="34.4476" gradientUnits="userSpaceOnUse">
<stop stop-color="#F8BF00"/>
<stop offset="1" stop-color="#00BC9B"/>
</linearGradient>
<linearGradient id="paint14_linear_1263_3876" x1="48.7473" y1="37.4777" x2="42.1684" y2="37.938" gradientUnits="userSpaceOnUse">
<stop stop-color="#00BC9B"/>
<stop offset="0.99" stop-color="#3273E2"/>
</linearGradient>
<linearGradient id="paint15_linear_1263_3876" x1="52.0051" y1="40.129" x2="53.0764" y2="46.4432" gradientUnits="userSpaceOnUse">
<stop stop-color="#00BC9B"/>
<stop offset="1" stop-color="#FF4C9F"/>
</linearGradient>
<radialGradient id="paint16_radial_1263_3876" cx="0" cy="0" r="1" gradientUnits="userSpaceOnUse" gradientTransform="translate(30.43 28.4754) scale(7.64569 7.64539)">
<stop offset="0.09" stop-color="#FA8F21"/>
<stop offset="0.78" stop-color="#D82D7E"/>
</radialGradient>
</defs>
</svg>
